%TF.GenerationSoftware,KiCad,Pcbnew,8.0.0*%
%TF.CreationDate,2024-02-24T18:53:26+01:00*%
%TF.ProjectId,ESP32-S3-Breadboard-Adapter,45535033-322d-4533-932d-427265616462,rev?*%
%TF.SameCoordinates,Original*%
%TF.FileFunction,Soldermask,Bot*%
%TF.FilePolarity,Negative*%
%FSLAX46Y46*%
G04 Gerber Fmt 4.6, Leading zero omitted, Abs format (unit mm)*
G04 Created by KiCad (PCBNEW 8.0.0) date 2024-02-24 18:53:26*
%MOMM*%
%LPD*%
G01*
G04 APERTURE LIST*
%ADD10R,2.000000X1.200000*%
%ADD11O,2.000000X1.200000*%
%ADD12R,1.700000X1.700000*%
%ADD13O,1.700000X1.700000*%
G04 APERTURE END LIST*
D10*
%TO.C,REF\u002A\u002A*%
X127003680Y-42928720D03*
D11*
X127003680Y-45468720D03*
X127003680Y-48008720D03*
X127003680Y-50548720D03*
X127003680Y-53088720D03*
X127003680Y-55628720D03*
X127003680Y-58168720D03*
X127003680Y-60708720D03*
X127003680Y-63248720D03*
X127003680Y-65788720D03*
X127003680Y-68328720D03*
X127003680Y-70868720D03*
X127003680Y-73408720D03*
X127003680Y-75948720D03*
X127003680Y-78488720D03*
X127003680Y-81028720D03*
X127003680Y-83568720D03*
X127003680Y-86108720D03*
X127003680Y-88648720D03*
X127000000Y-91186000D03*
X127000000Y-93726000D03*
X127000000Y-96266000D03*
X149863680Y-96268720D03*
X149863680Y-93728720D03*
X149863680Y-91188720D03*
X149863680Y-88648720D03*
X149863680Y-86108720D03*
X149863680Y-83568720D03*
X149863680Y-81028720D03*
X149863680Y-78488720D03*
X149863680Y-75948720D03*
X149863680Y-73408720D03*
X149863680Y-70868720D03*
X149863680Y-68328720D03*
X149863680Y-65788720D03*
X149863680Y-63248720D03*
X149863680Y-60708720D03*
X149863680Y-58168720D03*
X149863680Y-55628720D03*
X149863680Y-53088720D03*
X149863680Y-50548720D03*
X149863680Y-48008720D03*
X149863680Y-45468720D03*
X149863680Y-42928720D03*
%TD*%
D12*
%TO.C,REF\u002A\u002A*%
X142240000Y-109220000D03*
D13*
X142240000Y-111760000D03*
X142240000Y-114300000D03*
X142240000Y-116840000D03*
X142240000Y-119380000D03*
X142240000Y-121920000D03*
X142240000Y-124460000D03*
X142240000Y-127000000D03*
X142240000Y-129540000D03*
X142240000Y-132080000D03*
X142240000Y-134620000D03*
X142240000Y-137160000D03*
X142240000Y-139700000D03*
X142240000Y-142240000D03*
X142240000Y-144780000D03*
X142240000Y-147320000D03*
X142240000Y-149860000D03*
X142240000Y-152400000D03*
X142240000Y-154940000D03*
X142240000Y-157480000D03*
X142240000Y-160020000D03*
X142240000Y-162560000D03*
%TD*%
D12*
%TO.C,REF\u002A\u002A*%
X134620000Y-109220000D03*
D13*
X134620000Y-111760000D03*
X134620000Y-114300000D03*
X134620000Y-116840000D03*
X134620000Y-119380000D03*
X134620000Y-121920000D03*
X134620000Y-124460000D03*
X134620000Y-127000000D03*
X134620000Y-129540000D03*
X134620000Y-132080000D03*
X134620000Y-134620000D03*
X134620000Y-137160000D03*
X134620000Y-139700000D03*
X134620000Y-142240000D03*
X134620000Y-144780000D03*
X134620000Y-147320000D03*
X134620000Y-149860000D03*
X134620000Y-152400000D03*
X134620000Y-154940000D03*
X134620000Y-157480000D03*
X134620000Y-160020000D03*
X134620000Y-162560000D03*
%TD*%
M02*
