%TF.GenerationSoftware,KiCad,Pcbnew,8.0.0*%
%TF.CreationDate,2024-02-24T18:53:26+01:00*%
%TF.ProjectId,ESP32-S3-Breadboard-Adapter,45535033-322d-4533-932d-427265616462,rev?*%
%TF.SameCoordinates,Original*%
%TF.FileFunction,Legend,Bot*%
%TF.FilePolarity,Positive*%
%FSLAX46Y46*%
G04 Gerber Fmt 4.6, Leading zero omitted, Abs format (unit mm)*
G04 Created by KiCad (PCBNEW 8.0.0) date 2024-02-24 18:53:26*
%MOMM*%
%LPD*%
G01*
G04 APERTURE LIST*
%ADD10C,0.150000*%
%ADD11C,0.120000*%
G04 APERTURE END LIST*
D10*
X143573333Y-107344819D02*
X143906666Y-106868628D01*
X144144761Y-107344819D02*
X144144761Y-106344819D01*
X144144761Y-106344819D02*
X143763809Y-106344819D01*
X143763809Y-106344819D02*
X143668571Y-106392438D01*
X143668571Y-106392438D02*
X143620952Y-106440057D01*
X143620952Y-106440057D02*
X143573333Y-106535295D01*
X143573333Y-106535295D02*
X143573333Y-106678152D01*
X143573333Y-106678152D02*
X143620952Y-106773390D01*
X143620952Y-106773390D02*
X143668571Y-106821009D01*
X143668571Y-106821009D02*
X143763809Y-106868628D01*
X143763809Y-106868628D02*
X144144761Y-106868628D01*
X143144761Y-106821009D02*
X142811428Y-106821009D01*
X142668571Y-107344819D02*
X143144761Y-107344819D01*
X143144761Y-107344819D02*
X143144761Y-106344819D01*
X143144761Y-106344819D02*
X142668571Y-106344819D01*
X141906666Y-106821009D02*
X142239999Y-106821009D01*
X142239999Y-107344819D02*
X142239999Y-106344819D01*
X142239999Y-106344819D02*
X141763809Y-106344819D01*
X141239999Y-106344819D02*
X141239999Y-106582914D01*
X141478094Y-106487676D02*
X141239999Y-106582914D01*
X141239999Y-106582914D02*
X141001904Y-106487676D01*
X141382856Y-106773390D02*
X141239999Y-106582914D01*
X141239999Y-106582914D02*
X141097142Y-106773390D01*
X140478094Y-106344819D02*
X140478094Y-106582914D01*
X140716189Y-106487676D02*
X140478094Y-106582914D01*
X140478094Y-106582914D02*
X140239999Y-106487676D01*
X140620951Y-106773390D02*
X140478094Y-106582914D01*
X140478094Y-106582914D02*
X140335237Y-106773390D01*
X135953333Y-107344819D02*
X136286666Y-106868628D01*
X136524761Y-107344819D02*
X136524761Y-106344819D01*
X136524761Y-106344819D02*
X136143809Y-106344819D01*
X136143809Y-106344819D02*
X136048571Y-106392438D01*
X136048571Y-106392438D02*
X136000952Y-106440057D01*
X136000952Y-106440057D02*
X135953333Y-106535295D01*
X135953333Y-106535295D02*
X135953333Y-106678152D01*
X135953333Y-106678152D02*
X136000952Y-106773390D01*
X136000952Y-106773390D02*
X136048571Y-106821009D01*
X136048571Y-106821009D02*
X136143809Y-106868628D01*
X136143809Y-106868628D02*
X136524761Y-106868628D01*
X135524761Y-106821009D02*
X135191428Y-106821009D01*
X135048571Y-107344819D02*
X135524761Y-107344819D01*
X135524761Y-107344819D02*
X135524761Y-106344819D01*
X135524761Y-106344819D02*
X135048571Y-106344819D01*
X134286666Y-106821009D02*
X134619999Y-106821009D01*
X134619999Y-107344819D02*
X134619999Y-106344819D01*
X134619999Y-106344819D02*
X134143809Y-106344819D01*
X133619999Y-106344819D02*
X133619999Y-106582914D01*
X133858094Y-106487676D02*
X133619999Y-106582914D01*
X133619999Y-106582914D02*
X133381904Y-106487676D01*
X133762856Y-106773390D02*
X133619999Y-106582914D01*
X133619999Y-106582914D02*
X133477142Y-106773390D01*
X132858094Y-106344819D02*
X132858094Y-106582914D01*
X133096189Y-106487676D02*
X132858094Y-106582914D01*
X132858094Y-106582914D02*
X132619999Y-106487676D01*
X133000951Y-106773390D02*
X132858094Y-106582914D01*
X132858094Y-106582914D02*
X132715237Y-106773390D01*
D11*
%TO.C,REF\u002A\u002A*%
X140910000Y-110490000D02*
X143570000Y-110490000D01*
X140910000Y-163890000D02*
X140910000Y-110490000D01*
X140910000Y-163890000D02*
X143570000Y-163890000D01*
X142240000Y-107890000D02*
X143570000Y-107890000D01*
X143570000Y-107890000D02*
X143570000Y-109220000D01*
X143570000Y-163890000D02*
X143570000Y-110490000D01*
X133290000Y-110490000D02*
X135950000Y-110490000D01*
X133290000Y-163890000D02*
X133290000Y-110490000D01*
X133290000Y-163890000D02*
X135950000Y-163890000D01*
X134620000Y-107890000D02*
X135950000Y-107890000D01*
X135950000Y-107890000D02*
X135950000Y-109220000D01*
X135950000Y-163890000D02*
X135950000Y-110490000D01*
%TD*%
M02*
