M48
; DRILL file {KiCad 8.0.0} date 2024-02-24T18:57:26+0100
; FORMAT={-:-/ absolute / metric / decimal}
; #@! TF.CreationDate,2024-02-24T18:57:26+01:00
; #@! TF.GenerationSoftware,Kicad,Pcbnew,8.0.0
; #@! TF.FileFunction,Plated,1,2,PTH
FMAT,2
METRIC
; #@! TA.AperFunction,Plated,PTH,ComponentDrill
T1C0.800
; #@! TA.AperFunction,Plated,PTH,ComponentDrill
T2C1.000
%
G90
G05
T1
X127.0Y-91.186
X127.0Y-93.726
X127.0Y-96.266
X127.004Y-42.929
X127.004Y-45.469
X127.004Y-48.009
X127.004Y-50.549
X127.004Y-53.089
X127.004Y-55.629
X127.004Y-58.169
X127.004Y-60.709
X127.004Y-63.249
X127.004Y-65.789
X127.004Y-68.329
X127.004Y-70.869
X127.004Y-73.409
X127.004Y-75.949
X127.004Y-78.489
X127.004Y-81.029
X127.004Y-83.569
X127.004Y-86.109
X127.004Y-88.649
X149.864Y-42.929
X149.864Y-45.469
X149.864Y-48.009
X149.864Y-50.549
X149.864Y-53.089
X149.864Y-55.629
X149.864Y-58.169
X149.864Y-60.709
X149.864Y-63.249
X149.864Y-65.789
X149.864Y-68.329
X149.864Y-70.869
X149.864Y-73.409
X149.864Y-75.949
X149.864Y-78.489
X149.864Y-81.029
X149.864Y-83.569
X149.864Y-86.109
X149.864Y-88.649
X149.864Y-91.189
X149.864Y-93.729
X149.864Y-96.269
T2
X134.62Y-109.22
X134.62Y-111.76
X134.62Y-114.3
X134.62Y-116.84
X134.62Y-119.38
X134.62Y-121.92
X134.62Y-124.46
X134.62Y-127.0
X134.62Y-129.54
X134.62Y-132.08
X134.62Y-134.62
X134.62Y-137.16
X134.62Y-139.7
X134.62Y-142.24
X134.62Y-144.78
X134.62Y-147.32
X134.62Y-149.86
X134.62Y-152.4
X134.62Y-154.94
X134.62Y-157.48
X134.62Y-160.02
X134.62Y-162.56
X142.24Y-109.22
X142.24Y-111.76
X142.24Y-114.3
X142.24Y-116.84
X142.24Y-119.38
X142.24Y-121.92
X142.24Y-124.46
X142.24Y-127.0
X142.24Y-129.54
X142.24Y-132.08
X142.24Y-134.62
X142.24Y-137.16
X142.24Y-139.7
X142.24Y-142.24
X142.24Y-144.78
X142.24Y-147.32
X142.24Y-149.86
X142.24Y-152.4
X142.24Y-154.94
X142.24Y-157.48
X142.24Y-160.02
X142.24Y-162.56
M30
