%TF.GenerationSoftware,KiCad,Pcbnew,8.0.0*%
%TF.CreationDate,2024-02-24T18:53:26+01:00*%
%TF.ProjectId,ESP32-S3-Breadboard-Adapter,45535033-322d-4533-932d-427265616462,rev?*%
%TF.SameCoordinates,Original*%
%TF.FileFunction,Copper,L1,Top*%
%TF.FilePolarity,Positive*%
%FSLAX46Y46*%
G04 Gerber Fmt 4.6, Leading zero omitted, Abs format (unit mm)*
G04 Created by KiCad (PCBNEW 8.0.0) date 2024-02-24 18:53:26*
%MOMM*%
%LPD*%
G01*
G04 APERTURE LIST*
%TA.AperFunction,ComponentPad*%
%ADD10R,2.000000X1.200000*%
%TD*%
%TA.AperFunction,ComponentPad*%
%ADD11O,2.000000X1.200000*%
%TD*%
%TA.AperFunction,ComponentPad*%
%ADD12R,1.700000X1.700000*%
%TD*%
%TA.AperFunction,ComponentPad*%
%ADD13O,1.700000X1.700000*%
%TD*%
%TA.AperFunction,Conductor*%
%ADD14C,0.200000*%
%TD*%
G04 APERTURE END LIST*
D10*
%TO.P,REF\u002A\u002A,1*%
%TO.N,N/C*%
X127003680Y-42928720D03*
D11*
%TO.P,REF\u002A\u002A,2*%
X127003680Y-45468720D03*
%TO.P,REF\u002A\u002A,3*%
X127003680Y-48008720D03*
%TO.P,REF\u002A\u002A,4*%
X127003680Y-50548720D03*
%TO.P,REF\u002A\u002A,5*%
X127003680Y-53088720D03*
%TO.P,REF\u002A\u002A,6*%
X127003680Y-55628720D03*
%TO.P,REF\u002A\u002A,7*%
X127003680Y-58168720D03*
%TO.P,REF\u002A\u002A,8*%
X127003680Y-60708720D03*
%TO.P,REF\u002A\u002A,9*%
X127003680Y-63248720D03*
%TO.P,REF\u002A\u002A,10*%
X127003680Y-65788720D03*
%TO.P,REF\u002A\u002A,11*%
X127003680Y-68328720D03*
%TO.P,REF\u002A\u002A,12*%
X127003680Y-70868720D03*
%TO.P,REF\u002A\u002A,13*%
X127003680Y-73408720D03*
%TO.P,REF\u002A\u002A,14*%
X127003680Y-75948720D03*
%TO.P,REF\u002A\u002A,15*%
X127003680Y-78488720D03*
%TO.P,REF\u002A\u002A,16*%
X127003680Y-81028720D03*
%TO.P,REF\u002A\u002A,17*%
X127003680Y-83568720D03*
%TO.P,REF\u002A\u002A,18*%
X127003680Y-86108720D03*
%TO.P,REF\u002A\u002A,19*%
X127003680Y-88648720D03*
%TO.P,REF\u002A\u002A,20*%
X127000000Y-91186000D03*
%TO.P,REF\u002A\u002A,21*%
X127000000Y-93726000D03*
%TO.P,REF\u002A\u002A,22*%
X127000000Y-96266000D03*
%TO.P,REF\u002A\u002A,23*%
X149863680Y-96268720D03*
%TO.P,REF\u002A\u002A,24*%
X149863680Y-93728720D03*
%TO.P,REF\u002A\u002A,25*%
X149863680Y-91188720D03*
%TO.P,REF\u002A\u002A,26*%
X149863680Y-88648720D03*
%TO.P,REF\u002A\u002A,27*%
X149863680Y-86108720D03*
%TO.P,REF\u002A\u002A,28*%
X149863680Y-83568720D03*
%TO.P,REF\u002A\u002A,29*%
X149863680Y-81028720D03*
%TO.P,REF\u002A\u002A,30*%
X149863680Y-78488720D03*
%TO.P,REF\u002A\u002A,31*%
X149863680Y-75948720D03*
%TO.P,REF\u002A\u002A,32*%
X149863680Y-73408720D03*
%TO.P,REF\u002A\u002A,33*%
X149863680Y-70868720D03*
%TO.P,REF\u002A\u002A,34*%
X149863680Y-68328720D03*
%TO.P,REF\u002A\u002A,35*%
X149863680Y-65788720D03*
%TO.P,REF\u002A\u002A,36*%
X149863680Y-63248720D03*
%TO.P,REF\u002A\u002A,37*%
X149863680Y-60708720D03*
%TO.P,REF\u002A\u002A,38*%
X149863680Y-58168720D03*
%TO.P,REF\u002A\u002A,39*%
X149863680Y-55628720D03*
%TO.P,REF\u002A\u002A,40*%
X149863680Y-53088720D03*
%TO.P,REF\u002A\u002A,41*%
X149863680Y-50548720D03*
%TO.P,REF\u002A\u002A,42*%
X149863680Y-48008720D03*
%TO.P,REF\u002A\u002A,43*%
X149863680Y-45468720D03*
%TO.P,REF\u002A\u002A,44*%
X149863680Y-42928720D03*
%TD*%
D12*
%TO.P,REF\u002A\u002A,1*%
%TO.N,N/C*%
X142240000Y-109220000D03*
D13*
%TO.P,REF\u002A\u002A,2*%
X142240000Y-111760000D03*
%TO.P,REF\u002A\u002A,3*%
X142240000Y-114300000D03*
%TO.P,REF\u002A\u002A,4*%
X142240000Y-116840000D03*
%TO.P,REF\u002A\u002A,5*%
X142240000Y-119380000D03*
%TO.P,REF\u002A\u002A,6*%
X142240000Y-121920000D03*
%TO.P,REF\u002A\u002A,7*%
X142240000Y-124460000D03*
%TO.P,REF\u002A\u002A,8*%
X142240000Y-127000000D03*
%TO.P,REF\u002A\u002A,9*%
X142240000Y-129540000D03*
%TO.P,REF\u002A\u002A,10*%
X142240000Y-132080000D03*
%TO.P,REF\u002A\u002A,11*%
X142240000Y-134620000D03*
%TO.P,REF\u002A\u002A,12*%
X142240000Y-137160000D03*
%TO.P,REF\u002A\u002A,13*%
X142240000Y-139700000D03*
%TO.P,REF\u002A\u002A,14*%
X142240000Y-142240000D03*
%TO.P,REF\u002A\u002A,15*%
X142240000Y-144780000D03*
%TO.P,REF\u002A\u002A,16*%
X142240000Y-147320000D03*
%TO.P,REF\u002A\u002A,17*%
X142240000Y-149860000D03*
%TO.P,REF\u002A\u002A,18*%
X142240000Y-152400000D03*
%TO.P,REF\u002A\u002A,19*%
X142240000Y-154940000D03*
%TO.P,REF\u002A\u002A,20*%
X142240000Y-157480000D03*
%TO.P,REF\u002A\u002A,21*%
X142240000Y-160020000D03*
%TO.P,REF\u002A\u002A,22*%
X142240000Y-162560000D03*
%TD*%
D12*
%TO.P,REF\u002A\u002A,1*%
%TO.N,N/C*%
X134620000Y-109220000D03*
D13*
%TO.P,REF\u002A\u002A,2*%
X134620000Y-111760000D03*
%TO.P,REF\u002A\u002A,3*%
X134620000Y-114300000D03*
%TO.P,REF\u002A\u002A,4*%
X134620000Y-116840000D03*
%TO.P,REF\u002A\u002A,5*%
X134620000Y-119380000D03*
%TO.P,REF\u002A\u002A,6*%
X134620000Y-121920000D03*
%TO.P,REF\u002A\u002A,7*%
X134620000Y-124460000D03*
%TO.P,REF\u002A\u002A,8*%
X134620000Y-127000000D03*
%TO.P,REF\u002A\u002A,9*%
X134620000Y-129540000D03*
%TO.P,REF\u002A\u002A,10*%
X134620000Y-132080000D03*
%TO.P,REF\u002A\u002A,11*%
X134620000Y-134620000D03*
%TO.P,REF\u002A\u002A,12*%
X134620000Y-137160000D03*
%TO.P,REF\u002A\u002A,13*%
X134620000Y-139700000D03*
%TO.P,REF\u002A\u002A,14*%
X134620000Y-142240000D03*
%TO.P,REF\u002A\u002A,15*%
X134620000Y-144780000D03*
%TO.P,REF\u002A\u002A,16*%
X134620000Y-147320000D03*
%TO.P,REF\u002A\u002A,17*%
X134620000Y-149860000D03*
%TO.P,REF\u002A\u002A,18*%
X134620000Y-152400000D03*
%TO.P,REF\u002A\u002A,19*%
X134620000Y-154940000D03*
%TO.P,REF\u002A\u002A,20*%
X134620000Y-157480000D03*
%TO.P,REF\u002A\u002A,21*%
X134620000Y-160020000D03*
%TO.P,REF\u002A\u002A,22*%
X134620000Y-162560000D03*
%TD*%
D14*
%TO.N,*%
X144526000Y-124714000D02*
X142240000Y-127000000D01*
X128778000Y-113538000D02*
X128778000Y-156718000D01*
X153162000Y-103886000D02*
X153162000Y-76866160D01*
X149860000Y-93884160D02*
X151130000Y-95154160D01*
X125730000Y-95154160D02*
X125730000Y-102870000D01*
X145542000Y-133858000D02*
X145542000Y-112268000D01*
X146050000Y-112522000D02*
X146050000Y-138430000D01*
X144526000Y-111760000D02*
X144526000Y-124714000D01*
X121158000Y-105156000D02*
X129286000Y-113284000D01*
X149863680Y-48166880D02*
X149863680Y-48263680D01*
X123698000Y-76866160D02*
X127000000Y-73564160D01*
X129794000Y-147574000D02*
X134620000Y-152400000D01*
X127000000Y-93884160D02*
X125730000Y-95154160D01*
X149860000Y-101600000D02*
X142240000Y-109220000D01*
X149863680Y-48263680D02*
X155702000Y-54102000D01*
X153670000Y-104140000D02*
X153670000Y-72294160D01*
X130302000Y-143002000D02*
X134620000Y-147320000D01*
X149860000Y-78644160D02*
X152654000Y-81438160D01*
X144018000Y-111506000D02*
X144018000Y-120142000D01*
X133350000Y-111252000D02*
X133350000Y-115570000D01*
X156210000Y-105410000D02*
X148082000Y-113538000D01*
X122174000Y-104648000D02*
X130302000Y-112776000D01*
X146558000Y-112776000D02*
X146558000Y-143002000D01*
X127000000Y-78644160D02*
X124206000Y-81438160D01*
X152654000Y-103632000D02*
X144526000Y-111760000D01*
X127000000Y-88804160D02*
X127000000Y-88900000D01*
X121666000Y-104902000D02*
X129794000Y-113030000D01*
X149863680Y-43183680D02*
X156210000Y-49530000D01*
X151638000Y-103124000D02*
X143510000Y-111252000D01*
X155194000Y-104902000D02*
X147066000Y-113030000D01*
X131826000Y-129286000D02*
X131826000Y-112014000D01*
X147574000Y-113284000D02*
X147574000Y-152146000D01*
X120650000Y-105410000D02*
X128778000Y-113538000D01*
X148082000Y-156718000D02*
X142240000Y-162560000D01*
X125222000Y-103124000D02*
X133350000Y-111252000D01*
X154178000Y-104394000D02*
X146050000Y-112522000D01*
X148082000Y-113538000D02*
X148082000Y-156718000D01*
X134620000Y-137160000D02*
X131318000Y-133858000D01*
X152146000Y-103378000D02*
X144018000Y-111506000D01*
X154178000Y-67818000D02*
X154178000Y-104394000D01*
X124714000Y-103378000D02*
X132842000Y-111506000D01*
X127000000Y-88900000D02*
X125222000Y-90678000D01*
X124714000Y-86010160D02*
X124714000Y-103378000D01*
X127000000Y-101600000D02*
X134620000Y-109220000D01*
X149860000Y-58324160D02*
X154686000Y-63150160D01*
X156210000Y-49530000D02*
X156210000Y-105410000D01*
X127000000Y-53244160D02*
X127000000Y-53340000D01*
X129794000Y-113030000D02*
X129794000Y-147574000D01*
X145034000Y-129286000D02*
X145034000Y-112014000D01*
X151130000Y-102870000D02*
X142240000Y-111760000D01*
X153670000Y-72294160D02*
X149860000Y-68484160D01*
X121666000Y-58674000D02*
X121666000Y-104902000D01*
X129286000Y-113284000D02*
X129286000Y-152146000D01*
X149860000Y-88900000D02*
X151638000Y-90678000D01*
X155702000Y-105156000D02*
X147574000Y-113284000D01*
X126996320Y-48263680D02*
X121158000Y-54102000D01*
X126996320Y-43086880D02*
X126996320Y-43183680D01*
X125730000Y-102870000D02*
X134620000Y-111760000D01*
X142240000Y-137160000D02*
X145542000Y-133858000D01*
X146050000Y-138430000D02*
X142240000Y-142240000D01*
X120650000Y-49530000D02*
X120650000Y-105410000D01*
X132334000Y-111760000D02*
X132334000Y-124714000D01*
X131318000Y-112268000D02*
X123190000Y-104140000D01*
X147574000Y-152146000D02*
X142240000Y-157480000D01*
X128778000Y-156718000D02*
X134620000Y-162560000D01*
X127000000Y-96424160D02*
X127000000Y-101600000D01*
X123698000Y-103886000D02*
X123698000Y-76866160D01*
X144018000Y-120142000D02*
X142240000Y-121920000D01*
X126996320Y-48166880D02*
X126996320Y-48263680D01*
X127000000Y-58324160D02*
X122174000Y-63150160D01*
X155702000Y-54102000D02*
X155702000Y-105156000D01*
X130810000Y-112522000D02*
X130810000Y-138430000D01*
X127000000Y-63404160D02*
X127000000Y-63500000D01*
X149860000Y-88804160D02*
X149860000Y-88900000D01*
X152146000Y-86010160D02*
X152146000Y-103378000D01*
X130302000Y-112776000D02*
X130302000Y-143002000D01*
X129286000Y-152146000D02*
X134620000Y-157480000D01*
X154686000Y-63150160D02*
X154686000Y-104648000D01*
X154686000Y-104648000D02*
X146558000Y-112776000D01*
X143510000Y-111252000D02*
X143510000Y-115570000D01*
X147066000Y-147574000D02*
X142240000Y-152400000D01*
X125222000Y-90678000D02*
X125222000Y-103124000D01*
X149863680Y-43086880D02*
X149863680Y-43183680D01*
X124206000Y-81438160D02*
X124206000Y-103632000D01*
X149860000Y-63404160D02*
X149860000Y-63500000D01*
X145034000Y-112014000D02*
X153162000Y-103886000D01*
X149860000Y-96424160D02*
X149860000Y-101600000D01*
X155194000Y-58674000D02*
X155194000Y-104902000D01*
X121158000Y-54102000D02*
X121158000Y-105156000D01*
X124206000Y-103632000D02*
X132334000Y-111760000D01*
X132334000Y-124714000D02*
X134620000Y-127000000D01*
X131318000Y-133858000D02*
X131318000Y-112268000D01*
X151130000Y-95154160D02*
X151130000Y-102870000D01*
X149860000Y-53340000D02*
X155194000Y-58674000D01*
X132842000Y-120142000D02*
X134620000Y-121920000D01*
X133350000Y-115570000D02*
X134620000Y-116840000D01*
X122682000Y-104394000D02*
X130810000Y-112522000D01*
X146558000Y-143002000D02*
X142240000Y-147320000D01*
X130810000Y-138430000D02*
X134620000Y-142240000D01*
X147066000Y-113030000D02*
X147066000Y-147574000D01*
X122682000Y-67818000D02*
X122682000Y-104394000D01*
X151638000Y-90678000D02*
X151638000Y-103124000D01*
X149860000Y-53244160D02*
X149860000Y-53340000D01*
X123190000Y-104140000D02*
X123190000Y-72294160D01*
X134620000Y-132080000D02*
X131826000Y-129286000D01*
X131826000Y-112014000D02*
X123698000Y-103886000D01*
X123190000Y-72294160D02*
X127000000Y-68484160D01*
X153162000Y-76866160D02*
X149860000Y-73564160D01*
X143510000Y-115570000D02*
X142240000Y-116840000D01*
X127000000Y-83724160D02*
X124714000Y-86010160D01*
X149860000Y-83724160D02*
X152146000Y-86010160D01*
X126996320Y-43183680D02*
X120650000Y-49530000D01*
X142240000Y-132080000D02*
X145034000Y-129286000D01*
X145542000Y-112268000D02*
X153670000Y-104140000D01*
X127000000Y-53340000D02*
X121666000Y-58674000D01*
X132842000Y-111506000D02*
X132842000Y-120142000D01*
X122174000Y-63150160D02*
X122174000Y-104648000D01*
X149860000Y-63500000D02*
X154178000Y-67818000D01*
X127000000Y-63500000D02*
X122682000Y-67818000D01*
X152654000Y-81438160D02*
X152654000Y-103632000D01*
%TD*%
M02*
